<?xml version="1.0" encoding="utf-8"?>
<svg viewBox="196.966 124.975 68.437 73.979" xmlns="http://www.w3.org/2000/svg">
  <g transform="matrix(1, 0, 0, 1, 181.0802154541016, 112.00250244140625)">
    <g>
      <g>
        <path fill="none" stroke="#000000" stroke-width="2" stroke-miterlimit="10" d="M32,23.651c0,1.657-1.344,3-3,3l0,0     c-1.656,0-3-1.343-3-3v-6.5c0-1.657,1.344-3,3-3l0,0c1.656,0,3,1.343,3,3V23.651z"/>
        <path fill="none" stroke="#000000" stroke-width="2" stroke-miterlimit="10" d="M53,23.651c0,1.657-1.344,3-3,3l0,0     c-1.656,0-3-1.343-3-3v-6.5c0-1.657,1.344-3,3-3l0,0c1.656,0,3,1.343,3,3V23.651z"/>
        <path fill="none" stroke="#000000" stroke-width="2" stroke-miterlimit="10" d="M74,23.651c0,1.657-1.344,3-3,3l0,0     c-1.656,0-3-1.343-3-3v-6.5c0-1.657,1.344-3,3-3l0,0c1.656,0,3,1.343,3,3V23.651z"/>
      </g>
      <g>
        <g>
          <path fill="none" stroke="#000000" stroke-width="3" stroke-miterlimit="10" d="M26,20.099h-4.875c-2.209,0-4,1.791-4,4v57.75      c0,2.209,1.791,4,4,4h57.75c2.209,0,4-1.791,4-4v-57.75c0-2.209-1.791-4-4-4H74"/>
          <line fill="none" stroke="#000000" stroke-width="3" stroke-miterlimit="10" x1="47" y1="20.099" x2="32" y2="20.099"/>
          <line fill="none" stroke="#000000" stroke-width="3" stroke-miterlimit="10" x1="68" y1="20.099" x2="53" y2="20.099"/>
        </g>
        <line fill="none" stroke="#000000" stroke-width="3" stroke-miterlimit="10" x1="17.125" y1="33.667" x2="82.875" y2="33.667"/>
      </g>
    </g>
  </g>
</svg>