<?xml version="1.0" encoding="utf-8"?>
<svg viewBox="157.65 98.395 63.033 71.344" xmlns="http://www.w3.org/2000/svg">
  <path stroke-width="3" stroke="#ffffff" d="M 206.845 98.46 L 205.425 99.88 L 216.675 111.13 L 161.285 111.13 C 159.545 111.113 158.125 112.52 158.125 114.26 L 158.125 132.38 L 160.125 132.38 L 160.125 114.26 C 160.125 113.636 160.631 113.13 161.255 113.13 L 216.675 113.13 L 205.425 124.38 L 206.835 125.79 L 220.505 112.13 L 206.845 98.46 Z" style="fill: rgb(255, 255, 255);"/>
  <path stroke-width="3" stroke="#ffffff" d="M 220.125 152.88 L 220.125 133.76 L 218.125 133.76 L 218.125 152.88 C 218.125 153.504 217.619 154.01 216.995 154.01 L 161.575 154.01 L 172.825 142.76 L 171.415 141.35 L 157.745 155.01 L 171.405 168.68 L 172.815 167.27 L 161.575 156.01 L 216.965 156.01 C 218.705 156.027 220.125 154.62 220.125 152.88 Z" style="fill: rgb(255, 255, 255);"/>
</svg>