<?xml version="1.0" standalone="no"?>
<!DOCTYPE svg PUBLIC "-//W3C//DTD SVG 20010904//EN"
 "http://www.w3.org/TR/2001/REC-SVG-20010904/DTD/svg10.dtd">
<svg version="1.0" xmlns="http://www.w3.org/2000/svg"
 width="512.000000pt" height="512.000000pt" viewBox="0 0 512.000000 512.000000"
 preserveAspectRatio="xMidYMid meet">

<g transform="translate(0.000000,512.000000) scale(0.100000,-0.100000)"
fill="#ffffff" stroke="#ffffff" stroke-width="300">
<path d="M1264 4784 c-47 -17 -106 -69 -130 -116 -21 -41 -29 -124 -15 -175 8
-30 195 -290 668 -930 361 -488 663 -905 670 -926 17 -50 5 -103 -39 -164
-1185 -1653 -1283 -1791 -1301 -1843 -39 -112 10 -226 123 -286 34 -18 92 -19
1496 -22 l1461 -2 26 21 27 20 0 385 c0 371 -1 385 -20 404 -22 22 -69 26
-100 10 -34 -18 -40 -75 -40 -382 l0 -298 -1386 0 -1386 0 -29 29 c-31 32 -35
50 -18 83 6 12 301 426 655 920 355 495 653 916 664 935 49 93 46 216 -8 303
-16 25 -317 436 -670 913 -511 691 -642 874 -642 898 0 18 9 39 25 54 l24 25
1386 0 1385 0 0 -289 c0 -318 4 -345 53 -366 36 -15 82 -3 97 25 6 11 10 165
10 384 l0 365 -26 20 -27 21 -1446 -1 c-1245 0 -1452 -3 -1487 -15z"/>
</g>
</svg>
