<?xml version="1.0" encoding="utf-8"?>
<svg viewBox="18.506 14.806 62.877 70.365" xmlns="http://www.w3.org/2000/svg">
  <path stroke="black" stroke-width="1.5" d="M67.72,14.89,66.3,16.31,77.55,27.56H22.16A3.13,3.13,0,0,0,19,30.69V48.81h2V30.69a1.13,1.13,0,0,1,1.13-1.13H77.55L66.3,40.81l1.41,1.41L81.38,28.56Z"/>
  <path stroke="black" stroke-width="1.5" d="M81,69.31V50.19H79V69.31a1.13,1.13,0,0,1-1.13,1.13H22.45L33.7,59.19l-1.41-1.41L18.62,71.44,32.28,85.11l1.41-1.41L22.45,72.44H77.84A3.13,3.13,0,0,0,81,69.31Z"/>
</svg>