<svg xmlns="http://www.w3.org/2000/svg" width="1080" height="256" viewBox="0 0 1080 256">
  <defs>
    <style>
      .cls-1 {
        fill: red;
        fill-rule: evenodd;
      }
    </style>
  </defs>
  <path id="YouTube_Calendar" data-name="YouTube Calendar" class="cls-1" d="M87.227,184.091v-50.56l47.736-68.8H116.522L93.347,99.824q-7.671,11.724-13.056,21.087-5.63-10.095-12.158-20.191L44.549,64.733H25.291l46.1,68.8v50.56H87.227ZM114.3,174.4q11.22,11.644,29.418,11.643a42.607,42.607,0,0,0,20.93-5.292,35.479,35.479,0,0,0,14.607-14.859q5.019-9.566,5.018-26.257,0-20.6-11.342-32.282T143.718,95.672q-16.077,0-27.255,9.607-13.384,11.562-13.383,35.579Q103.08,162.761,114.3,174.4Zm11.139-58.376a24.251,24.251,0,0,1,36.435.041q7.3,8.264,7.3,24.3,0,17.017-7.262,25.321a24.218,24.218,0,0,1-36.476.04q-7.264-8.262-7.263-24.873T125.439,116.026Zm122.588,68.065V97.626H233.339v46.326q0,11.075-2.408,16.894a18.794,18.794,0,0,1-8.2,9.2,24.219,24.219,0,0,1-12.4,3.378,18.233,18.233,0,0,1-11.1-3.3,15.273,15.273,0,0,1-5.875-9.078q-0.9-3.989-.9-15.469V97.626H177.768V151.2a74.2,74.2,0,0,0,.9,13.679,27.541,27.541,0,0,0,4.529,10.869q3.222,4.439,9.873,7.368a35.112,35.112,0,0,0,14.321,2.931q17.382,0,27.5-14.655v12.7h13.138Zm47.759,0V78.818h39.577V64.733H240.542V78.818h39.414V184.091h15.83Zm94.273,0V97.626H375.371v46.326q0,11.075-2.408,16.894a18.8,18.8,0,0,1-8.2,9.2,24.219,24.219,0,0,1-12.4,3.378,18.233,18.233,0,0,1-11.1-3.3,15.273,15.273,0,0,1-5.875-9.078q-0.9-3.989-.9-15.469V97.626H319.8V151.2a74.107,74.107,0,0,0,.9,13.679,27.541,27.541,0,0,0,4.529,10.869q3.222,4.439,9.873,7.368a35.112,35.112,0,0,0,14.321,2.931q17.382,0,27.5-14.655v12.7h13.138Zm13.16-10.828q8.732,12.783,24.073,12.782,15.423,0,26.439-12.131t11.016-34.358a57.816,57.816,0,0,0-2.611-17.586,43.692,43.692,0,0,0-7.222-14.045,30.93,30.93,0,0,0-11.751-9.037,36.449,36.449,0,0,0-15.137-3.216q-14.444,0-23.746,11.642V64.733H389.592V184.091h13.627V173.263Zm6.855-57.2q7.017-8.344,16.647-8.345,9.548,0,16.279,8.06t6.732,24.995q0,16.529-7.018,24.873T426.068,174q-11.834,0-18.768-11.317-4.245-6.919-4.244-22.471Q403.056,124.414,410.074,116.067Zm99.413,53.7A22.513,22.513,0,0,1,495.7,174a24.07,24.07,0,0,1-18.116-7.572q-7.263-7.57-8.078-21.819h64.628q0.079-2.606.081-3.908,0-21.412-11.016-33.219T494.8,95.672q-17.953,0-29.213,12.05t-11.261,33.869q0,21.089,11.138,32.771t30.152,11.683q15.1,0,24.807-7.328t13.3-20.6l-15.178-1.873Q515.2,165.528,509.487,169.762Zm-31.539-55.283a23.361,23.361,0,0,1,17.014-6.757,22.531,22.531,0,0,1,18.2,8.467q4.569,5.456,5.549,16.365H470.319Q471.053,121.238,477.948,114.479Zm148.6,50.479q-9.222,7.655-22.522,7.653a38.85,38.85,0,0,1-20.319-5.618q-9.384-5.618-13.831-16.975t-4.447-26.583a71.164,71.164,0,0,1,3.753-22.919A34.827,34.827,0,0,1,582.2,82.808q9.26-6.595,23.052-6.595,12,0,19.911,5.944t12.077,18.971l15.586-3.664q-4.817-16.527-17.055-25.646T605.578,62.7a59.471,59.471,0,0,0-29.01,7.206A48.855,48.855,0,0,0,556.25,90.99q-7.141,13.882-7.141,32.526a81.023,81.023,0,0,0,6.325,32q6.322,14.9,18.441,22.756t31.458,7.856q18.685,0,31.62-10.217t17.912-29.677l-15.831-3.99Q635.77,157.307,626.549,164.958Zm82.032,19.133h15.341a32.522,32.522,0,0,1-3.713-10.381q-0.939-5.414-.938-25.85V128.32q0-9.769-.734-13.515a23.059,23.059,0,0,0-4.57-9.974q-3.266-3.948-10.2-6.554t-18.034-2.605a57.984,57.984,0,0,0-19.666,3.053q-8.488,3.053-12.975,8.712T646.646,122.3l14.362,1.954q2.365-9.2,7.3-12.823t15.3-3.623q11.1,0,16.729,4.966,4.161,3.665,4.161,12.62,0,0.815-.081,3.827-8.406,2.931-26.194,5.048a105.208,105.208,0,0,0-13.057,2.2,35.762,35.762,0,0,0-10.567,4.8,23.927,23.927,0,0,0-7.589,8.427,23.608,23.608,0,0,0-2.9,11.6,22.951,22.951,0,0,0,7.671,17.79q7.669,6.962,21.951,6.961a45.477,45.477,0,0,0,16.2-2.85,54.706,54.706,0,0,0,15.709-9.77,30.994,30.994,0,0,0,2.937,10.666h0Zm-4.161-38.022q0,9.69-2.367,14.655a22.837,22.837,0,0,1-9.71,10.137,30.345,30.345,0,0,1-15.1,3.7q-8.568,0-13.015-3.908a12.933,12.933,0,0,1-2.407-16.731,12.768,12.768,0,0,1,5.793-4.763q3.753-1.627,12.812-2.931,15.993-2.279,23.991-5.536v5.373ZM733,184.091V64.733H718.315V184.091H733Zm49.636-14.329A22.513,22.513,0,0,1,768.849,174a24.07,24.07,0,0,1-18.116-7.572q-7.263-7.57-8.078-21.819h64.628q0.079-2.606.081-3.908,0-21.412-11.016-33.219t-28.4-11.805q-17.954,0-29.213,12.05t-11.261,33.869q0,21.089,11.138,32.771t30.152,11.683q15.1,0,24.807-7.328t13.3-20.6L791.7,156.246Q788.351,165.528,782.639,169.762ZM751.1,114.479a23.361,23.361,0,0,1,17.014-6.757,22.531,22.531,0,0,1,18.2,8.467q4.569,5.456,5.549,16.365H743.471Q744.2,121.238,751.1,114.479Zm65.508,69.612V136.869q0-16.609,6.814-22.553a23.833,23.833,0,0,1,16.2-5.943,19.382,19.382,0,0,1,10.241,2.646,14.1,14.1,0,0,1,6.079,7.083q1.714,4.439,1.714,13.393v52.6h14.688V130.925q0-10.176-.816-14.248a28.278,28.278,0,0,0-4.57-10.828,22.653,22.653,0,0,0-9.833-7.368,36.251,36.251,0,0,0-14.4-2.809q-18.036,0-27.582,14.248V97.626H801.92v86.465h14.688Zm124.71,0V64.733H926.711v42.826A28.918,28.918,0,0,0,902.8,95.672a34.736,34.736,0,0,0-19.339,5.618,34.043,34.043,0,0,0-12.975,16.161,61.347,61.347,0,0,0-4.325,23.489,54.894,54.894,0,0,0,4.774,23.489A37.491,37.491,0,0,0,884.4,180.346a34.051,34.051,0,0,0,19.054,5.7q15.993,0,24.235-12.864v10.91h13.628Zm-53.49-68.309q6.569-7.979,16.361-7.979,10.038,0,16.892,8.305t6.854,26.053q0,16.12-6.732,23.977T904.842,174q-9.548,0-16.565-8.223t-7.018-24.832Q881.259,123.762,887.828,115.782ZM1000.5,184.091h15.34a32.4,32.4,0,0,1-3.71-10.381q-0.945-5.414-.94-25.85V128.32q0-9.769-.73-13.515a23.105,23.105,0,0,0-4.57-9.974q-3.27-3.948-10.2-6.554t-18.034-2.605a57.993,57.993,0,0,0-19.666,3.053q-8.487,3.053-12.974,8.712T938.566,122.3l14.362,1.954q2.365-9.2,7.3-12.823t15.3-3.623q11.1,0,16.728,4.966,4.161,3.665,4.162,12.62,0,0.815-.082,3.827-8.406,2.931-26.194,5.048a105.185,105.185,0,0,0-13.056,2.2,35.756,35.756,0,0,0-10.568,4.8,23.937,23.937,0,0,0-7.589,8.427,23.619,23.619,0,0,0-2.9,11.6,22.951,22.951,0,0,0,7.67,17.79q7.67,6.962,21.951,6.961a45.482,45.482,0,0,0,16.2-2.85,54.7,54.7,0,0,0,15.708-9.77,31.039,31.039,0,0,0,2.936,10.666h0Zm-4.16-38.022q0,9.69-2.366,14.655a22.845,22.845,0,0,1-9.711,10.137,30.341,30.341,0,0,1-15.1,3.7q-8.568,0-13.016-3.908a12.933,12.933,0,0,1-2.407-16.731,12.765,12.765,0,0,1,5.794-4.763q3.751-1.627,12.811-2.931,15.993-2.279,23.991-5.536v5.373Zm28.75,38.022V138.823a57.035,57.035,0,0,1,2.44-17.1,15.654,15.654,0,0,1,5.47-8.019,14.021,14.021,0,0,1,8.65-2.891,21.046,21.046,0,0,1,10.77,3.176l5.06-13.6a28.675,28.675,0,0,0-15.09-4.722,16.354,16.354,0,0,0-9.43,2.931q-4.275,2.931-9.34,12.131V97.626H1010.4v86.465h14.69Z"/>
</svg>
