<?xml version="1.0" standalone="no"?>
<!DOCTYPE svg PUBLIC "-//W3C//DTD SVG 20010904//EN"
 "http://www.w3.org/TR/2001/REC-SVG-20010904/DTD/svg10.dtd">
<svg version="1.0" xmlns="http://www.w3.org/2000/svg"
 width="500.000000pt" height="500.000000pt" viewBox="0 0 500.000000 500.000000"
 preserveAspectRatio="xMidYMid meet">

<g transform="translate(0.000000,500.000000) scale(0.100000,-0.100000)"
fill="#000000" stroke="none">
<path d="M565 2919 c-225 -9 -265 -20 -304 -82 -55 -90 -56 -583 0 -674 11
-17 40 -41 65 -54 42 -20 67 -22 277 -28 128 -4 334 -4 458 0 196 6 232 9 272
27 88 39 107 107 107 392 0 336 -23 386 -187 409 -96 14 -475 19 -688 10z
m306 -325 c82 -47 148 -91 147 -96 -4 -12 -288 -177 -305 -178 -10 0 -13 41
-13 173 0 154 3 187 17 187 2 0 71 -39 154 -86z"/>
<path d="M1699 2690 c-78 -23 -112 -79 -111 -182 0 -75 18 -117 65 -152 40
-29 160 -35 212 -10 43 20 75 66 75 107 0 26 -2 27 -48 27 -44 0 -49 -2 -59
-30 -19 -51 -99 -54 -121 -5 -7 14 -12 48 -12 76 0 40 5 55 25 74 13 14 34 25
45 25 22 0 70 -41 70 -60 0 -5 22 -10 50 -10 49 0 50 1 50 30 0 39 -51 97 -98
110 -43 11 -105 12 -143 0z"/>
<path d="M2029 2510 l-67 -180 59 0 c54 0 59 2 65 25 6 24 10 25 74 25 64 0
68 -1 74 -25 6 -23 11 -25 66 -25 33 0 60 1 60 3 0 1 -29 81 -64 177 l-64 175
-68 3 -69 3 -66 -181z m154 20 c10 -33 17 -62 17 -65 0 -3 -18 -5 -40 -5 -22
0 -40 2 -40 5 0 17 34 125 40 125 4 0 14 -27 23 -60z"/>
<path d="M2390 2510 l0 -180 150 0 150 0 0 45 0 45 -90 0 -90 0 0 135 0 135
-60 0 -60 0 0 -180z"/>
<path d="M2730 2510 l0 -180 161 0 160 0 -3 43 -3 42 -98 0 -97 0 0 33 0 32
85 0 85 0 0 35 c0 21 -5 35 -12 36 -7 0 -46 0 -85 -1 l-73 -1 0 30 0 31 100 0
100 0 0 40 0 40 -160 0 -160 0 0 -180z"/>
<path d="M3100 2510 l0 -180 50 0 50 0 0 85 c0 47 4 85 9 85 5 0 41 -38 81
-85 l72 -85 49 0 49 0 0 180 0 180 -50 0 -50 0 0 -85 c0 -47 -3 -85 -7 -84 -5
0 -39 38 -78 85 l-69 84 -53 0 -53 0 0 -180z"/>
<path d="M3530 2510 l0 -180 93 0 c109 0 162 13 199 47 40 38 51 74 46 153 -7
127 -53 160 -225 160 l-113 0 0 -180z m209 74 c26 -33 28 -109 5 -142 -12 -17
-25 -22 -60 -22 l-44 0 0 95 0 95 39 0 c31 0 44 -6 60 -26z"/>
<path d="M3962 2518 c-35 -95 -63 -176 -62 -180 0 -5 25 -8 55 -8 50 0 55 2
61 25 6 24 10 25 74 25 64 0 68 -1 74 -25 6 -23 11 -25 66 -25 33 0 60 1 60 3
0 1 -29 81 -64 177 l-64 175 -69 3 -69 3 -62 -173z m151 12 c10 -33 17 -62 17
-65 0 -3 -18 -5 -40 -5 -22 0 -40 2 -40 5 0 17 34 125 40 125 4 0 14 -27 23
-60z"/>
<path d="M4320 2510 l0 -180 60 0 60 0 0 70 c0 63 2 70 20 70 14 0 29 -19 55
-70 l35 -70 60 0 c33 0 60 2 60 5 0 3 -16 37 -35 76 l-36 70 25 20 c37 29 50
79 33 122 -26 61 -45 67 -199 67 l-138 0 0 -180z m227 84 c11 -30 -11 -49 -61
-52 l-46 -3 0 35 0 36 50 0 c38 0 52 -4 57 -16z"/>
</g>
</svg>
