<svg xmlns="http://www.w3.org/2000/svg" width="1080" height="256" viewBox="0 0 1080 256">
  <defs>
    <style>
      .cls-1, .cls-2 {
        fill-rule: evenodd;
      }

      .cls-2 {
        fill: red;
      }
    </style>
  </defs>
  <path id="youtube" class="cls-1" d="M52.122,201.858L94.9,94.005H70.242L55.31,136.18,39.2,94.005h-25l29.36,68.013L27.46,201.858H52.122Zm103.346-38.673c6.544-7.168,9.9-17.337,9.9-30.506h0c0-13-3.355-23.171-9.9-30.339S139.53,91.5,127.451,91.5s-21.475,3.667-28.018,10.835-9.9,17.337-9.9,30.339h0c0,13.169,3.355,23.338,9.9,30.506s15.938,10.835,28.018,10.835S148.925,170.353,155.468,163.185Zm-39.09-14c-2.517-3.834-3.859-9.335-3.859-16.5h0c0-6.835,1.342-12.169,3.859-16.17a13.425,13.425,0,0,1,22.146,0c2.516,4,3.858,9.335,3.858,16.17h0c0,7.168-1.342,12.669-3.858,16.5s-6.208,5.668-11.073,5.668S118.894,153.016,116.378,149.182Zm81.871,24.671a28.1,28.1,0,0,0,11.576-2.333,29.687,29.687,0,0,0,8.892-6.5v6.5h20.8V94.005H216.536v42.341h0c0,6-1.174,10.336-3.691,12.836a12.85,12.85,0,0,1-9.227,3.834h0c-4.194,0-7.047-1.5-8.557-4.334s-2.181-6.835-2.181-12V94.005H169.9v47.842h0c0,10.336,2.684,18.17,7.885,23.671s12.08,8.335,20.468,8.335h0Zm100.326-1.167v-21.67H288.509c-6.711,0-11.241-1.334-13.422-4a14.028,14.028,0,0,1-3.523-9.668V114.009h22.817l6.375-20H271.564V71.834H248.58V139.18h0c0,10.836,3.355,19.17,10.066,24.838,6.711,5.835,15.938,8.668,27.85,8.668h12.079Zm30.2,1.167a28.108,28.108,0,0,0,11.576-2.333,29.712,29.712,0,0,0,8.892-6.5v6.5h20.8V94.005H347.061v42.341h0c0,6-1.175,10.336-3.691,12.836a12.853,12.853,0,0,1-9.228,3.834h0c-4.194,0-7.046-1.5-8.556-4.334s-2.181-6.835-2.181-12V94.005H300.42v47.842h0c0,10.336,2.685,18.17,7.886,23.671s12.079,8.335,20.468,8.335h0Zm95.293,0.167c10.569,0,18.622-3.667,24.494-10.835q8.556-10.752,8.557-30.506t-8.557-30.506C442.857,95.005,434.8,91.5,424.234,91.5h0a27.435,27.435,0,0,0-19.8,7.835V58H381.453V171.52H402.76v-6.835h0a27.327,27.327,0,0,0,21.307,9.335h0Zm-15.939-24.838c-2.516-3.834-3.858-9.335-3.858-16.5h0c0-6.835,1.342-12.336,3.858-16.17a13.425,13.425,0,0,1,22.146,0c2.517,4,3.859,9.335,3.859,16.17h0c0,7.168-1.342,12.669-3.859,16.5s-6.207,5.668-11.073,5.668S410.645,153.016,408.128,149.182Zm88.247,24.838a45.733,45.733,0,0,0,16.945-3,42.287,42.287,0,0,0,14.093-9.335l-11.576-13.836h0a26.958,26.958,0,0,1-8.557,6.168,20.093,20.093,0,0,1-8.556,1.667h0a18.863,18.863,0,0,1-11.912-3.834c-3.355-2.5-5.369-6.5-6.207-12.335h48.821a21.414,21.414,0,0,0,1.007-4.168,34.9,34.9,0,0,0,.167-4.5h0a48.691,48.691,0,0,0-4.026-20.17,33.495,33.495,0,0,0-11.912-14c-5.2-3.5-11.744-5.168-19.461-5.168h0c-11.577,0-20.468,3.834-27.011,11.335s-9.731,17.67-9.731,30.339h0c0,12.5,3.355,22.338,9.9,29.672,6.543,7.5,15.939,11.169,28.018,11.169h0Zm-0.5-64.179a13.74,13.74,0,0,1,9.73,3.834c2.517,2.668,4.2,6.335,4.866,11.169H480.605c0.838-4.834,2.516-8.5,5.368-11.169a14.148,14.148,0,0,1,9.9-3.834h0Z"/>
  <path id="Calendar" class="cls-2" d="M602.122,174.187a62.778,62.778,0,0,0,20.958-3.334,59.286,59.286,0,0,0,17.773-10.336l-11.9-18.5h0a42.572,42.572,0,0,1-12.239,7.5,36.915,36.915,0,0,1-12.91,2.334h0c-8.551,0-15.09-3.167-19.785-9.5s-7.042-15.5-7.042-27.338h0q0-17.752,7.042-27.5c4.695-6.5,11.234-9.835,19.617-9.835h0a43.7,43.7,0,0,1,8.551.834,21.377,21.377,0,0,1,7.042,3,83.308,83.308,0,0,1,8.048,6l11.9-18.337h0c-5.868-4.834-11.4-8.5-16.767-10.669s-11.9-3.167-19.449-3.167h0c-10.563,0-19.617,2.334-27.162,7.168a46.762,46.762,0,0,0-17.437,20.837c-4.191,9-6.2,19.837-6.2,32.506h0c0,18.5,4.359,32.839,13.245,43.008s21.126,15.336,36.719,15.336h0Zm59.185-.167a26.849,26.849,0,0,0,10.73-2.167,29.765,29.765,0,0,0,8.887-6v5.668h20.119V125.344h0c0-8.168-1.509-14.669-4.527-19.67a27.348,27.348,0,0,0-12.071-11,44.521,44.521,0,0,0-17.438-3.334h0a63.864,63.864,0,0,0-16.934,2.334,59.22,59.22,0,0,0-14.754,6l7.209,15.169h0a43.915,43.915,0,0,1,19.617-5h0q7.8,0,12.575,4c3.186,2.834,4.695,7.335,4.527,13.836h0a34.631,34.631,0,0,0-8.551-4.5,33.831,33.831,0,0,0-11.234-1.667h0a29.921,29.921,0,0,0-12.575,2.667,23.485,23.485,0,0,0-9.724,8.335c-2.515,3.668-3.856,8.335-3.856,14h0c0,8.335,2.515,15,7.712,20,5.03,5,11.737,7.5,20.288,7.5h0Zm6.036-18.5c-7.545,0-11.4-2.834-11.4-8.669h0c0-2.834.839-5,2.683-6.334s4.695-2,8.719-2h0a18.648,18.648,0,0,1,8.718,2,6.664,6.664,0,0,1,3.689,6.334,7.078,7.078,0,0,1-3.689,6.5,16.506,16.506,0,0,1-8.718,2.168h0Zm69.077,17.169v-21.67h-6.2c-1.844,0-3.018-.334-3.521-1.167a5.937,5.937,0,0,1-.838-3.5V58h-22.97v89.85h0c0,9.5,2.18,16,6.707,19.5,4.359,3.5,10.562,5.334,18.61,5.334h8.216Zm30.347,1.334a45.678,45.678,0,0,0,16.934-3,42.246,42.246,0,0,0,14.084-9.335l-11.569-13.836h0a26.934,26.934,0,0,1-8.551,6.168,20.073,20.073,0,0,1-8.551,1.667h0a18.844,18.844,0,0,1-11.9-3.834c-3.353-2.5-5.365-6.5-6.2-12.335H799.8a21.336,21.336,0,0,0,1.006-4.168,34.7,34.7,0,0,0,.168-4.5h0a48.706,48.706,0,0,0-4.024-20.17,33.5,33.5,0,0,0-11.9-14c-5.2-3.5-11.737-5.168-19.45-5.168h0c-11.568,0-20.455,3.834-26.994,11.335s-9.724,17.67-9.724,30.339h0c0,12.5,3.353,22.338,9.892,29.672,6.539,7.5,15.928,11.169,28,11.169h0Zm-0.5-64.179a13.731,13.731,0,0,1,9.725,3.834c2.515,2.668,4.191,6.335,4.862,11.169H751.007c0.838-4.834,2.515-8.5,5.365-11.169a14.131,14.131,0,0,1,9.892-3.834h0ZM822.1,171.52V129.512h0c0-6.335,1.341-10.836,4.192-13.5a15.079,15.079,0,0,1,10.395-3.834h0q7.293,0,9.557,4.5a26.886,26.886,0,0,1,2.179,11.669V171.52H871.39V123.177h0c0-10.168-2.851-18.17-8.384-23.671s-12.91-8.168-21.8-8.168h0a33.079,33.079,0,0,0-12.072,2.334,19.835,19.835,0,0,0-9.054,6.834v-6.5H799.126V171.52H822.1Zm123.4,0V58h-22.97V99.34h0A27.136,27.136,0,0,0,902.742,91.5h0c-10.563,0-18.611,3.5-24.312,10.668-5.868,7.168-8.718,17.5-8.718,30.673h0c0,13.169,2.85,23.171,8.551,30.339s13.748,10.835,24.311,10.835h0a27.123,27.123,0,0,0,21.629-9.835v7.335H945.5ZM918.67,116.343c2.515,3.834,3.857,9.335,3.857,16.5h0c0,6.834-1.342,12.169-3.857,16a13.2,13.2,0,0,1-22.132,0c-2.515-3.834-3.856-9.169-3.856-16h0c0-7.168,1.341-12.669,3.856-16.5s6.2-5.668,11.066-5.668S916.155,112.509,918.67,116.343Zm53.988,57.677a26.849,26.849,0,0,0,10.73-2.167,29.773,29.773,0,0,0,8.886-6v5.668h20.116V125.344h0c0-8.168-1.5-14.669-4.52-19.67a27.341,27.341,0,0,0-12.075-11,44.512,44.512,0,0,0-17.437-3.334h0a63.864,63.864,0,0,0-16.934,2.334,59.243,59.243,0,0,0-14.755,6l7.21,15.169h0a43.915,43.915,0,0,1,19.617-5h0q7.8,0,12.575,4c3.185,2.834,4.694,7.335,4.527,13.836h0a34.649,34.649,0,0,0-8.551-4.5,33.835,33.835,0,0,0-11.234-1.667h0a29.921,29.921,0,0,0-12.575,2.667,23.478,23.478,0,0,0-9.724,8.335c-2.515,3.668-3.857,8.335-3.857,14h0c0,8.335,2.515,15,7.713,20,5.03,5,11.737,7.5,20.288,7.5h0Zm6.035-18.5c-7.545,0-11.4-2.834-11.4-8.669h0c0-2.834.839-5,2.683-6.334s4.694-2,8.718-2h0a18.649,18.649,0,0,1,8.719,2,6.664,6.664,0,0,1,3.689,6.334,7.078,7.078,0,0,1-3.689,6.5,16.507,16.507,0,0,1-8.719,2.168h0Zm59.687,16V137.347h0q0-10.253,5.53-16.5,5.295-6,14.09-6h6.54V93.172h-3.36a31.763,31.763,0,0,0-14.92,3.5,23.787,23.787,0,0,0-10.06,9.836l-0.17-12.5h-20.79V171.52h23.14Z"/>
</svg>